{"title":"Twisted Path 2010 XviD BDRip SAFCuk009 {DragonTrG}","uid":6194290,"size":923839800,"categoryP":"video","categoryS":"movies","magnet":"?xt=urn:btih:9f99918b4d944ef187e1bddf13c3efa11a486f65&amp;dn=Twisted+Path+2010+XviD+BDRip+SAFCuk009+%7BDragonTrG%7D&amp;tr=udp%3A%2F%2Ftracker.openbittorrent.com%3A80&amp;tr=udp%3A%2F%2Fopen.demonii.com%3A1337&amp;tr=udp%3A%2F%2Ftracker.coppersurfer.tk%3A6969&amp;tr=udp%3A%2F%2Fexodus.desync.com%3A6969","seeders":0,"leechers":1,"uploader":"SAFCukO09","files":3,"time":1298405969,"description":" \n\n\n\n\n\n\n\n\nFormat : AVI\nFormat/Info : Audio Video Interleave\nFile size : 881 MiB\nDuration : 1h 12mn\nOverall bit rate : 1 696 Kbps\nWriting application : VirtualDubMod 1.5.10.2 (build 2540/release)\nWriting library : VirtualDub build 32839/release\n\nVideo\nID : 0\nFormat : MPEG-4 Visual\nFormat profile : Advanced Simple@L5\nFormat settings, BVOP : Yes\nFormat settings, QPel : No\nFormat settings, GMC : No warppoints\nFormat settings, Matrix : Custom\nCodec ID : XVID\nCodec ID/Hint : XviD\nDuration : 1h 12mn\nBit rate : 1 239 Kbps\nWidth : 640 pixels\nHeight : 272 pixels\nDisplay aspect ratio : 2.35:1\nFrame rate : 23.976 fps\nColor space : YUV\nChroma subsampling : 4:2:0\nBit depth : 8 bits\nScan type : Progressive\nBits/(Pixel*Frame) : 0.297\nStream size : 643 MiB (73%)\nWriting library : XviD 1.2.1 (UTC 2008-12-04)\n\nAudio\nID : 1\nFormat : AC-3\nFormat/Info : Audio Coding 3\nMode extension : CM (complete main)\nCodec ID : 2000\nDuration : 1h 12mn\nBit rate mode : Constant\nBit rate : 448 Kbps\nChannel(s) : 6 channels\nChannel positions : Front: L C R, Side: L R, LFE\nSampling rate : 48.0 KHz\nBit depth : 16 bits\nStream size : 233 MiB (26%)\nAlignment : Split accross interleaves\nInterleave, duration : 42 ms (1.00 video frame)\nInterleave, preload duration : 500 ms\n\n\n\n &lt;a href=&quot;\nhttp://www.imdb.com/title/tt1241258/&quot; rel=&quot;nofollow&quot; target=&quot;_NEW&quot;&gt;\nhttp://www.imdb.com/title/tt1241258/&lt;/a&gt;\n\n\n\n\n\n\n\nStoryline\n\nDarrin is traumatized by a horrific event he witnessed as a child. Now 25, he and his brother Sean travel to Italy to visit an old friend, but the trip turns into a nightmare when a walk in the woods forces him to confront his childhood demons.\n\nDirector:\nFederico Rivia\nWriter:\nFederico Rivia\nStars:\nTyrone Benton III, Luisa Bertolatti and Anthony Binford\n\n\n\n\n\n\n\n\n\n\n\n\n\n\n\n\n\n\n\n\nGreetz to Imagine ,Flawl3ss ,Santi ,Vision ,Kingdom, BDK, TOXiC, iNK, THC, Ez, Rx,\n\n\n\n\n\n\n\n\n\n","torrent":{"xt":"urn:btih:9f99918b4d944ef187e1bddf13c3efa11a486f65","amp;dn":"Twisted+Path+2010+XviD+BDRip+SAFCuk009+%7BDragonTrG%7D","amp;tr":["udp%3A%2F%2Ftracker.openbittorrent.com%3A80","udp%3A%2F%2Fopen.demonii.com%3A1337","udp%3A%2F%2Ftracker.coppersurfer.tk%3A6969","udp%3A%2F%2Fexodus.desync.com%3A6969"],"infoHash":"9f99918b4d944ef187e1bddf13c3efa11a486f65","infoHashBuffer":{"type":"Buffer","data":[159,153,145,139,77,148,78,241,135,225,189,223,19,195,239,161,26,72,111,101]},"announce":[],"urlList":[]}}